<svg width="50" height="50" viewBox="0 0 50 50" fill="none" xmlns="http://www.w3.org/2000/svg">
<path d="M9.16016 11.1914C8.70117 11.2988 8.99414 11.2793 8.61328 11.3281C6.98242 11.6797 8.19336 11.9922 9.16016 11.1914ZM37.8418 11.8457C37.959 11.7676 38.3691 11.3672 37.0898 10.9766C37.168 11.377 36.8262 11.3379 36.8262 11.5625C37.7734 12.4219 38.1641 13.916 39.375 14.2285C39.6094 13.1543 38.3008 12.627 37.8418 11.8457ZM8.29102 10.8789C8.4375 11.748 9.0918 9.96094 9.10156 9.32617C8.84766 9.47266 8.59375 9.61914 8.33008 9.73633C8.94531 10.0488 8.4082 10.3809 7.74414 10.8789C6.39648 12.5586 9.00391 9.57031 8.29102 10.8789ZM25 0C11.1914 0 0 11.1914 0 25C0 38.7988 11.1914 50 25 50C38.8086 50 50 38.7988 50 25C50 11.1914 38.8086 0 25 0ZM25.6641 8.37891L25.7812 8.41797C25.3125 9.02344 28.2227 10.791 26.1328 10.9375C24.1797 11.4941 26.9531 10.4297 25.4395 10.6152C26.2402 9.50195 24.8047 9.48242 25.6641 8.37891ZM13.8086 9.98047C13.1055 9.39453 10.8984 10.7812 11.6699 10.4492C13.584 9.69727 11.7969 10.5273 12.2461 11.4258C11.8359 12.2754 12.1094 10.5859 11.0938 11.5918C10.3613 11.7578 8.56445 13.418 8.78906 12.9102C8.73047 13.7012 6.65039 14.6387 6.36719 15.957C5.68359 17.7832 6.20117 15.8887 6.07422 15.1758C5.09766 13.9355 3.32031 17.2754 3.84766 18.5938C4.73633 17.0312 4.66797 18.4277 4.02344 19.1211C4.67773 20.3223 3.42773 21.8848 4.66797 22.7734C5.21484 22.9004 6.30859 20.9375 5.83008 22.9785C6.16211 21.2109 6.74805 23.3984 7.69531 22.9102C7.75391 23.8379 8.33008 23.4082 8.45703 24.5312C10.0391 24.4141 11.4844 27.0898 9.59961 27.5977C9.88281 27.5195 10.4395 28.0176 11.084 27.6367C12.1777 28.5059 15.0586 28.6133 15.1367 30.7617C13.1543 31.709 14.6484 34.3066 12.9297 35.2344C10.957 34.9414 12.2559 37.666 11.4258 37.3535C11.7578 39.3164 9.43359 37.0996 10.332 38.1836C11.9824 39.1992 9.60938 38.9941 10.3516 39.7363C9.52148 39.5605 10.8691 41.2793 11.0938 41.9141C12.2852 43.8477 10.0684 41.4844 9.41406 40.8398C8.78906 39.5898 7.31445 37.1973 6.9043 35.2344C6.66992 32.3828 4.46289 30.4688 3.95508 27.6855C3.44727 26.1328 5.35156 23.6426 4.32617 22.7734C3.4375 22.0801 3.79883 19.707 3.27148 18.457C4.58984 12.7441 8.7793 7.92969 13.8086 5.07812C13.291 5.45898 16.7676 4.0918 16.3672 4.42383C16.2598 4.66797 18.3984 3.49609 19.6875 3.32031C19.5508 3.33984 16.3379 4.49219 17.2266 4.33594C15.8496 5.00977 17.0898 4.62891 17.7734 4.28711C16.4062 5.29297 15.3516 5.00977 13.7988 5.89844C12.2363 6.30859 12.5586 7.92969 11.4453 8.74023C12.0996 8.85742 13.7402 7.05078 14.6973 6.41602C16.8945 5.35156 13.584 8.34961 15.6738 7.06055C14.9707 7.71484 15.1172 8.75977 14.6875 9.05273C14.4727 8.99414 15.5371 9.56055 13.8086 9.98047ZM17.2266 5.48828C17.002 5.79102 16.6895 6.44531 16.5039 6.04492C16.25 6.17188 16.1523 6.71875 15.6738 6.2793C15.957 6.07422 16.25 5.58594 15.6934 5.88867C15.9473 5.61523 18.2129 4.84375 18.0859 4.55078C18.4863 4.29688 18.4473 4.16992 17.9883 4.32617C17.7539 4.24805 18.5449 3.58398 19.5996 3.49609C19.7461 3.49609 19.8047 3.59375 19.541 3.56445C17.9492 4.05273 18.6328 3.91602 19.707 3.56445C19.2969 3.79883 19.0137 3.86719 18.9453 3.97461C20.0195 3.58398 18.8867 4.25781 19.1309 4.20898C18.8281 4.36523 19.1797 4.41406 18.5938 4.63867C18.7012 4.55078 17.6367 5.27344 18.2715 5.05859C17.6562 5.64453 17.3828 5.6543 17.2266 5.48828ZM18.1641 6.88477C18.1836 5.94727 19.5312 5.35156 19.3652 5.30273C21.0254 4.52148 18.7891 5.33203 20.0977 4.62891C20.5859 4.58008 21.6211 3.01758 23.0566 2.91992C24.6387 2.44141 23.9062 2.94922 25.0781 2.5L24.8438 2.69531C24.6387 2.72461 24.8926 3.08594 24.1504 3.63281C24.0723 4.48242 22.7344 4.0918 23.3984 5C22.9688 4.38477 22.3242 4.98047 23.1348 5.03906C22.2656 5.70312 20.2441 5.82031 19.2773 6.92383C18.6523 7.82227 18.0762 7.53906 18.1641 6.88477ZM25.1074 10.0098C24.4434 11.6113 23.7988 9.77539 24.9707 9.48242C25.2637 9.63867 25.3809 9.6875 25.1074 10.0098ZM22.6074 6.80664C22.4121 6.08398 22.5684 6.46484 23.7305 6.12305C24.5312 6.69922 23.0176 7.08008 22.6074 6.80664ZM40.791 35.4688C39.873 33.8867 41.9043 32.4219 42.5879 31.0938C42.5 32.6465 42.3047 34.1797 40.791 35.4688ZM44.248 17.3926C43.252 17.4707 42.3535 17.7051 41.4551 17.1387C39.3848 14.873 41.8359 19.6973 42.5195 17.7246C44.9805 18.6621 42.4805 22.7051 40.9277 22.2852C40.0586 20.4102 38.9844 18.3496 37.0898 17.4316C38.5449 19.043 39.2676 21.0254 40.8301 22.4805C40.9375 24.5117 42.998 21.7383 42.8711 23.3105C43.0664 26.0156 39.8145 27.6367 40.3809 30.3516C41.5918 32.8223 38.0469 33.2715 38.4473 35.4883C37.0215 37.0801 35.498 39.2285 32.9395 38.8867C32.9395 37.5391 32.2559 36.3965 32.0996 35.0098C30.7129 33.252 33.5645 31.3672 31.7969 29.5312C29.7559 29.0723 32.2168 26.2598 30.1172 26.5234C28.8574 25.2637 27.0117 26.4844 25.2051 26.4941C22.9395 26.709 20.6055 23.7109 21.6113 21.5918C20.8105 19.3848 24.1504 18.7402 24.2383 16.7969C25.8398 15.459 28.1152 15.625 30.2832 15.3125C30.127 16.8652 31.7676 16.875 33.0078 17.3926C33.7012 15.7129 35.8594 17.666 37.334 16.6016C37.8418 14.1211 35.8984 15.6152 34.7852 14.8242C33.4375 12.8516 37.666 13.8086 37.2266 12.7734C35.5859 12.7637 36.5137 10.752 35.3516 11.875C36.3965 12.0605 35.166 12.8809 35.1953 11.9434C33.6133 11.4844 35.1367 13.7402 34.3359 13.9551C33.1152 13.4473 33.6914 14.5312 33.8184 14.6973C33.291 15.8398 32.6465 13.0176 31.1523 13.0957C29.668 11.7383 30.5664 13.7109 31.8555 14.0332C31.582 14.1113 32.0117 15.2344 31.6699 14.7559C30.6055 13.291 28.584 12.3145 27.3828 14.1113C27.2559 15.791 23.8379 16.2695 24.3848 14.3066C23.584 12.2754 26.8652 14.248 26.5625 12.627C24.4531 11.2305 27.1387 11.6797 27.8516 10.3711C29.4727 10.4199 27.9199 9.04297 28.6816 8.64258C28.6035 10.1367 29.9219 9.85352 30.9668 9.57031C30.7129 8.71094 31.5918 8.74023 31.0547 8.02734C33.4766 7.06055 29.209 8.47656 30.0684 6.35742C29.0234 5.63477 29.6289 7.94922 30.0684 8.19336C30.0977 8.90625 29.4922 9.78516 28.6621 8.29102C27.4512 9.08203 27.5781 7.49023 27.5 7.65625C27.3633 7.04102 28.418 7.01172 28.4277 5.9375C28.3398 5.25391 28.3594 4.89258 28.8477 4.85352C28.8867 4.95117 30.8496 4.98047 31.543 5.79102C29.6484 5.41016 31.2598 6.10352 32.1094 6.49414C31.2012 5.78125 32.4707 6.49414 31.7285 5.68359C32.0215 5.74219 30.918 4.57031 32.0508 5.5957C31.4355 4.86328 33.252 5.07812 32.1777 4.53125C33.75 4.9707 32.8223 4.57031 31.8945 4.16992C29.3359 2.64648 36.416 6.23047 33.5254 4.63867C35.3711 5.03906 29.5801 3.21289 32.2168 4.01367C31.2109 3.57422 32.1875 3.81836 33.0957 4.10156C31.4648 3.59375 29.0234 2.64648 29.1211 2.60742C29.6875 2.64648 30.2441 2.77344 30.7813 2.92969C32.4512 3.42773 30.3027 2.8125 30.7617 2.82227C36.5039 4.29688 41.5332 8.14453 44.5898 13.1738C45.3027 13.9258 47.2461 18.8965 46.2305 16.6895C46.6895 18.4473 46.7578 20.3418 47.002 22.1387C46.4941 21.5723 45.9277 19.4824 45.4395 18.3203C45.2344 18.7695 45 17.6855 44.248 17.3926Z" fill="white"/>
</svg>
