<svg width="29" height="28" viewBox="0 0 29 28" fill="none" xmlns="http://www.w3.org/2000/svg">
<path d="M8.91028 0H20.6703C25.1503 0 28.7903 3.64 28.7903 8.12V19.88C28.7903 22.0336 27.9348 24.0989 26.412 25.6217C24.8892 27.1445 22.8238 28 20.6703 28H8.91028C4.43028 28 0.790283 24.36 0.790283 19.88V8.12C0.790283 5.96644 1.64578 3.90109 3.16858 2.37829C4.69137 0.855498 6.75673 0 8.91028 0ZM8.63028 2.8C7.29359 2.8 6.01165 3.331 5.06646 4.27618C4.12128 5.22137 3.59028 6.50331 3.59028 7.84V20.16C3.59028 22.946 5.84428 25.2 8.63028 25.2H20.9503C22.287 25.2 23.5689 24.669 24.5141 23.7238C25.4593 22.7786 25.9903 21.4967 25.9903 20.16V7.84C25.9903 5.054 23.7363 2.8 20.9503 2.8H8.63028ZM22.1403 4.9C22.6044 4.9 23.0495 5.08437 23.3777 5.41256C23.7059 5.74075 23.8903 6.18587 23.8903 6.65C23.8903 7.11413 23.7059 7.55925 23.3777 7.88744C23.0495 8.21563 22.6044 8.4 22.1403 8.4C21.6762 8.4 21.231 8.21563 20.9028 7.88744C20.5747 7.55925 20.3903 7.11413 20.3903 6.65C20.3903 6.18587 20.5747 5.74075 20.9028 5.41256C21.231 5.08437 21.6762 4.9 22.1403 4.9ZM14.7903 7C16.6468 7 18.4273 7.7375 19.74 9.05025C21.0528 10.363 21.7903 12.1435 21.7903 14C21.7903 15.8565 21.0528 17.637 19.74 18.9497C18.4273 20.2625 16.6468 21 14.7903 21C12.9338 21 11.1533 20.2625 9.84054 18.9497C8.52778 17.637 7.79028 15.8565 7.79028 14C7.79028 12.1435 8.52778 10.363 9.84054 9.05025C11.1533 7.7375 12.9338 7 14.7903 7ZM14.7903 9.8C13.6764 9.8 12.6081 10.2425 11.8204 11.0302C11.0328 11.8178 10.5903 12.8861 10.5903 14C10.5903 15.1139 11.0328 16.1822 11.8204 16.9698C12.6081 17.7575 13.6764 18.2 14.7903 18.2C15.9042 18.2 16.9725 17.7575 17.7601 16.9698C18.5478 16.1822 18.9903 15.1139 18.9903 14C18.9903 12.8861 18.5478 11.8178 17.7601 11.0302C16.9725 10.2425 15.9042 9.8 14.7903 9.8Z" fill="white"/>
</svg>
