<svg width="34" height="30" viewBox="0 0 34 30" fill="none" xmlns="http://www.w3.org/2000/svg">
<g filter="url(#filter0_d_23_111)">
<path d="M29.8439 2.58824C28.9218 3.04118 27.9278 3.33882 26.8978 3.48118C27.9517 2.79529 28.7661 1.70824 29.1493 0.401176C28.1553 1.04824 27.0535 1.50118 25.8919 1.76C24.9458 0.647059 23.6164 0 22.1075 0C19.2931 0 16.9937 2.48471 16.9937 5.55176C16.9937 5.99177 17.0416 6.41882 17.1255 6.82C12.8621 6.58706 9.06569 4.37412 6.53877 1.02235C6.09566 1.83765 5.84416 2.79529 5.84416 3.80471C5.84416 5.73294 6.74236 7.44118 8.13156 8.41177C7.28127 8.41177 6.49086 8.15294 5.79626 7.76471V7.80353C5.79626 10.4953 7.5687 12.7471 9.91598 13.2518C9.1625 13.4756 8.37113 13.5066 7.60462 13.3424C7.9299 14.4456 8.56693 15.4109 9.42618 16.1026C10.2854 16.7944 11.3237 17.1777 12.395 17.1988C10.579 18.7524 8.32798 19.5922 6.01183 19.58C5.60465 19.58 5.19746 19.5541 4.79028 19.5024C7.06571 21.0812 9.77227 22 12.6704 22C22.1075 22 27.293 13.5365 27.293 6.19882C27.293 5.95294 27.293 5.72 27.2811 5.47412C28.287 4.69765 29.1493 3.71412 29.8439 2.58824Z" fill="white"/>
</g>
<defs>
<filter id="filter0_d_23_111" x="0.790283" y="0" width="33.0536" height="30" filterUnits="userSpaceOnUse" color-interpolation-filters="sRGB">
<feFlood flood-opacity="0" result="BackgroundImageFix"/>
<feColorMatrix in="SourceAlpha" type="matrix" values="0 0 0 0 0 0 0 0 0 0 0 0 0 0 0 0 0 0 127 0" result="hardAlpha"/>
<feOffset dy="4"/>
<feGaussianBlur stdDeviation="2"/>
<feComposite in2="hardAlpha" operator="out"/>
<feColorMatrix type="matrix" values="0 0 0 0 0 0 0 0 0 0 0 0 0 0 0 0 0 0 0.25 0"/>
<feBlend mode="normal" in2="BackgroundImageFix" result="effect1_dropShadow_23_111"/>
<feBlend mode="normal" in="SourceGraphic" in2="effect1_dropShadow_23_111" result="shape"/>
</filter>
</defs>
</svg>
