<svg width="1103" height="454" viewBox="0 0 1103 454" fill="none" xmlns="http://www.w3.org/2000/svg">
<path d="M839.109 27.9677C846.417 29.1976 853.449 29.7326 854.616 38.3972C855.21 42.8103 862.394 43.2618 867.698 43.3808C877.211 43.5959 879.698 44.8703 879.132 51.8997C878.675 57.5765 880.889 59.2561 887.292 59.7235C895.724 60.3385 903.625 62.3309 912.499 59.5031C920.485 56.9597 925.053 60.3172 928.845 68.2886C929.649 69.977 930.8 72.2289 933.181 71.0114C944.032 65.4626 956.989 69.7851 968.615 64.8885C976.337 61.6359 987.341 63.1094 995.089 69.2803C998.836 72.2645 1003.28 73.6988 1007.93 71.0754C1012.86 68.2939 1016.94 70.8533 1019.48 73.0163C1027.54 79.8857 1036.64 77.8436 1045.89 76.3826C1047.12 76.1871 1048.32 75.8174 1049.54 75.5294C1054.56 74.3368 1049.85 83.8901 1055.48 79.8182C1058.47 77.6605 1060.55 77.209 1063.93 76.8696C1079.3 75.3215 1090.63 82.5464 1102.42 88.9502L1096.78 99.9253C1096.37 99.8394 1095.96 99.7605 1095.55 99.6889C1092.21 99.1112 1089.15 94.2627 1088.15 95.5886C1086.06 98.3257 1081.87 100.666 1082.41 104.495C1083.11 109.407 1080.18 110.568 1074.93 110.776C1070.26 110.961 1065.48 111.647 1061.86 114.709C1058.91 117.206 1055.42 117.256 1051.24 117.123C1040.43 116.778 1034.62 121.029 1033.27 130.106C1031.88 139.416 1021.39 142.757 1015.84 149.314C1014.05 151.433 1012.44 148.687 1011.48 147.274C1007.08 140.808 1009.8 134.797 1013.73 129.123C1015.63 126.379 1018.68 124.197 1021.09 121.678C1022.56 120.151 1026.36 119.17 1024.63 116.796C1023.09 114.695 1019.57 114.124 1016.52 114.19C1012.7 114.274 1010.12 116.442 1008.36 118.904C1005.3 123.194 1001.69 122.563 996.376 121.774C982.533 119.718 968.201 118.515 958.559 130.028C956.007 133.076 948.109 133.521 950.517 138.471C952.784 143.129 959.765 140.047 964.493 141.254C967.987 142.144 972.696 141.145 972.853 145.043C973.02 149.245 978.18 153.948 972.424 157.691C970.637 158.853 969.025 159.56 968.782 161.539C968.66 162.536 968.701 164.045 967.23 164.041C965.838 164.038 965.99 162.548 965.846 161.59C965.741 160.883 965.814 160.159 965.716 159.45C965.441 157.461 966.498 155.304 964.635 153.514C963.985 155.528 963.762 157.732 962.61 159.525C957.127 168.086 951.281 176.173 938.463 178.75C926.719 181.111 925.553 183.103 928.377 192.932C929.407 196.515 929.43 199.567 924.794 200.834C920.312 202.059 918.915 198.609 917.369 196.22C916.177 194.379 915.508 192.214 915.12 190.129C914.551 187.076 912.505 186.8 909.634 187.675C907.399 188.355 905.027 190.662 902.988 187.929C901.581 186.043 900.685 184.795 898.654 187.161C897.438 188.577 895.523 190.323 895.761 191.702C896.278 194.702 898.963 192.274 900.708 192.415C905.699 192.82 910.402 193.312 903.844 198.188C900.869 200.399 901.759 203.292 902.441 206.178C905.924 220.92 898.3 231.81 881.418 236.807C877.2 238.057 871.931 237.844 870.11 242.772C868.95 245.913 867.217 245.646 865.532 242.502C863.494 238.7 860.445 241.133 858.159 242.459C855.056 244.262 855.004 246.519 857.884 248.682C859.162 249.642 860.531 250.527 861.725 251.552C869.876 258.546 867.007 268.337 855.916 271.99C852.857 272.998 852.388 271.267 851.163 269.827C847.833 265.911 842.085 261.29 837.809 264.497C832.291 268.634 838.127 273.549 842.517 277.03C845.746 279.592 849.548 282.675 848.729 286.002C846.853 293.613 854.987 298.241 855.504 304.983C855.738 308.022 859.27 308.477 862.21 309.152C870.833 311.134 878.862 315.229 888.392 313.997C890.031 313.786 892.439 314.332 892.559 315.793C892.731 317.865 890.134 317.268 888.615 317.381C877.745 318.19 866.617 316.672 856.84 314.083C849.302 312.087 842.924 304.901 838.026 298.904C833.959 293.909 829.499 289.142 824.674 284.634C823.263 283.317 820.625 282.485 822.33 280.493C824.254 278.246 827.061 279.129 829.055 280.585C831.95 282.698 834.477 285.158 837.194 287.442C838.094 288.199 839.383 289.028 840.473 288.265C841.751 287.373 840.383 286.402 839.714 285.627C832.639 277.423 829.986 268.321 830.958 258.292C831.32 254.552 830.582 250.809 823.887 252.007C818.127 253.038 818.279 248.483 816.278 246.137C807.882 236.29 804.764 236.038 793.979 244.02C791.502 245.852 788.787 247.464 786.079 249.057C776.763 254.536 774.308 262.654 779.094 271.665C780.074 273.511 782.476 275.555 779.823 277.425C777.379 279.149 775.318 276.968 772.989 276.309C762.24 273.264 758.191 265.842 756.714 257.856C754.511 245.961 743.707 239.084 735.985 230.37C734.003 228.132 731.044 227.659 727.939 227.615C724.059 227.558 720.147 227.274 716.307 227.585C713.915 227.779 711.64 227.491 709.397 227.084C705.571 226.39 703.302 230.464 706.422 232.424C707.911 233.359 709.526 234.211 710.902 235.224C713.381 237.047 710.829 238.153 710.109 239.699C705.554 249.483 694.194 252.002 684.435 255.718C678.331 258.041 672.552 261.553 665.413 261.902C664.087 261.966 662.768 262.543 662.768 263.798C662.768 265.492 664.385 266.31 666.105 266.437C670.478 266.765 674.33 264.788 678.511 264.235C684.336 263.468 687.145 266.741 684.548 271.13C679.425 279.791 672.837 287.78 663.401 293.869C648.951 303.195 647.574 307.004 652.994 320.972C657.24 331.918 656.742 333.57 645.224 340.81C640.83 343.574 637.064 346.107 639.249 351.338C640.113 353.406 640.326 356.234 638.258 357.416C629.996 362.146 627.291 370.012 622.104 376.411C613.764 386.696 600.982 386.202 588.685 386.977C584.832 387.22 581.926 384.053 581.536 381.577C580.129 372.668 574.797 364.558 571.102 356.7C565.417 344.609 561.152 334.185 566.848 321.436C568.482 317.776 566.329 311.731 563.423 308.177C558.555 302.221 556.241 296.22 556.466 289.214C556.537 286.982 555.072 284.202 552.357 284.529C544.954 285.421 538.95 279.769 532.748 280.926C525.789 282.226 518.169 281.09 511.774 284.387C507.479 286.601 503.678 285.711 499.767 283.58C489.945 278.23 484.38 269.479 475.81 263.13C474.912 262.463 474.369 261.155 474.584 260.172C477.53 246.65 471.894 231.1 487.29 220.491C494.774 215.334 497.73 207.43 504.931 202.144C507.955 199.924 508.094 196.918 503.498 195.433C500.434 194.441 497.238 193.014 498.236 190.271C499.898 185.702 496.698 180.885 499.492 176.703C502.001 172.951 506.874 173.632 511.141 173.82C523.861 174.382 525.023 173.573 522.763 162.824C521.806 158.27 523.114 156.146 527.809 153.331C533.254 150.064 538.456 146.266 543.991 143.026C552.895 137.811 553.901 135.785 547.543 127.865C545.553 125.388 544.262 122.963 543.477 120.173C541.294 112.399 542.765 109.054 551.619 105.606C557.798 103.201 562.43 100.053 565.147 94.7941C569.867 85.6567 578.96 80.4776 589.723 77.0437C594.141 75.6343 598.756 74.6514 603.204 73.2989C611.128 70.8888 617.896 69.7744 625.08 76.0751C629.809 80.2216 638.831 79.5836 645.091 82.9463C647.218 84.0909 650.525 84.2882 651.857 85.7918C657.068 91.6695 660.888 94.7123 663.847 84.5441C664.527 82.2105 669.028 81.432 671.456 83.8279C675.144 87.4696 678.466 86.6165 682.652 84.6135C689.674 81.2543 697.819 82.957 705.38 81.7359C713.405 80.4402 708.14 77.5734 707.107 75.1011L707.25 74.9536C713.564 76.0253 719.847 77.2464 726.201 78.1066C729.564 78.5616 731.934 78.6291 732.978 74.2657C735.245 64.7943 740.377 63.0081 752.924 63.9874C757.415 64.3375 761.756 63.6959 766.304 65.3613C768.931 66.3228 773.643 65.8998 774.372 62.0323C775.388 56.6381 778.715 57.333 783.617 58.5238C788.15 59.624 794.337 61.5062 794.273 53.9223C794.256 51.9352 797.22 51.5726 799.302 51.1958C808.448 49.5429 816.979 46.0629 826.84 46.4272C835.894 46.7614 838.337 41.7795 833.471 34.6257C836.139 32.8732 837.674 30.4507 839.109 27.9677ZM548.96 175.677C539.415 177.074 532.938 181.847 529.05 188.723C527.15 192.084 525.495 195.098 521.294 196.753C519.893 197.304 517.054 196.988 517.397 198.502C517.665 199.682 520.53 199.435 522.066 198.991C529.76 196.767 537.418 194.686 545.666 194.093C550.172 193.767 554.216 194.304 558.143 195.793C562.003 197.258 561.508 200.283 561.72 203.155C561.887 205.388 563.996 207.248 566.691 207.364C575.329 207.732 583.56 213.801 592.711 208.512C594.122 207.696 597.191 207.865 598.911 208.564C608.428 212.436 618.608 209.749 628.389 210.864C633.18 211.409 634.883 207.522 635.801 204.639C636.922 201.113 633.47 201.042 630.156 200.852C627.287 200.686 624.31 198.696 621.703 199.066C612.721 200.338 608.767 197.247 608.199 190.102C608.085 188.659 607.028 187.283 604.864 187.531C603.408 187.698 603.534 189.022 602.983 189.9C599.803 194.972 591.57 195.843 587.633 191.528C586.438 190.22 586.333 186.749 584.598 187.47C575.657 191.188 571.703 184.308 565.745 181.919C561.834 180.35 559.402 179.774 559.009 184.481C558.801 186.985 557.112 190.147 553.704 189.315C548.808 188.121 553.153 185.307 553.363 183.183C553.687 180 556.466 175.763 548.96 175.677ZM583.075 136.686C589.035 136.944 588.542 136.684 590.963 133.522C596.648 126.095 594.394 118.753 591.426 111.355C590.592 109.274 590.924 105.43 586.322 106.789C582.818 107.826 580.624 111.206 582.895 113.764C590.571 122.416 580.472 126.593 576.342 131.825C573.76 135.097 568.57 138.415 564.186 132.236C563.545 131.331 562.068 130.599 561.03 131.452C560.285 132.063 559.99 133.455 560.198 134.392C561.566 140.53 567.401 139.222 572.389 139.233C576.236 139.242 578.675 135.133 583.075 136.686ZM653.984 179.877C652.166 174.003 642.112 174.511 640.626 167.772C640.287 166.234 637.752 170.132 635.949 171.263C633.092 173.052 630.208 173.587 628.439 170.644C626.991 168.236 625.434 166.789 622.916 168.988C620.039 171.501 616.631 174.096 617.184 178.153C617.536 180.732 619.929 182.204 622.558 181.729C630.811 180.24 638.454 181.196 646.245 183.738C649.509 184.801 653.084 183.524 653.984 179.877ZM645.85 235.634C643.15 236.118 643.045 237.744 642.904 239.523C642.488 244.709 646.987 247.726 650.296 251.257C651.797 252.859 653.339 255.722 655.82 254.846C659.401 253.58 657.145 250.665 656.468 248.465C655.183 244.285 651.465 241.228 648.859 237.659C648.263 236.838 646.972 236.365 645.85 235.634ZM0.238937 143.948C11.0238 138.467 21.9437 133.226 34.0153 129.849C35.5551 129.419 37.6953 128.628 37.5281 127.085C37.335 125.299 34.7337 126.075 33.3698 125.411C27.8133 122.702 22.0531 120.23 16.7861 117.174C10.2796 113.399 10.582 110.275 17.2815 106.892C18.7269 106.162 20.4276 105.783 22.0016 105.222C23.8052 104.577 27.4766 105.021 26.7561 102.815C26.1234 100.878 22.986 102.709 20.968 102.614C19.2717 102.536 17.4488 102.616 15.9198 102.12C12.971 101.164 10.3697 99.3423 10.8973 96.5625C11.5685 93.0238 15.36 92.7501 18.9135 92.7164C20.4962 92.7004 22.7651 94.2378 23.4685 92.5955C24.1226 91.0705 21.4119 90.827 20.0458 90.093C9.84001 84.601 9.87861 83.2573 20.1595 78.311C22.7608 77.0597 25.197 75.5224 27.927 74.5217C35.688 71.678 42.9816 69.9557 52.1409 72.6253C62.0679 75.5188 73.2324 75.3499 83.7041 77.1397C96.6957 79.3596 109.031 79.4112 122.28 76.6207C135.006 73.9405 148.647 75.9347 161.411 79.6547C162.945 80.1008 164.911 81.2241 166.103 79.7489C167.182 78.4141 165.865 76.9655 164.422 76.1604C162.267 74.9607 160.296 73.953 159.749 71.4647C159.129 68.6458 157.118 68.0166 154.495 70.3538C151.386 73.1247 147.643 73.0749 143.826 71.6975C139.919 70.2881 136.931 68.2192 139.636 64.3126C141.15 62.1247 142.807 60.127 142.625 57.4272C142.368 53.6397 146.363 52.8061 148.641 54.0182C155.968 57.9142 165.156 55.7547 172.599 60.5215C178.72 64.4424 187.171 65.5923 195.245 61.5133C199.906 59.1601 204.823 58.6393 203.804 65.5834C203.41 68.2797 204.501 71.223 206.912 72.2805C213.53 75.1829 219.082 77.4205 209.661 83.0991C207.686 84.29 209.155 86.533 211.613 87.1106C214.542 87.7985 218.743 88.2766 219.08 85.1804C219.474 81.5529 220.993 79.5836 224.409 77.4916C229.983 74.0791 229.045 71.9961 221.887 71.9339C216.071 71.8823 214.079 66.888 209.702 64.8992C214.799 64.1385 216.802 59.0712 222.299 58.7584C225.29 58.5878 228.254 58.051 231.224 57.6458C235.462 57.0682 238.363 55.3193 238.987 51.5477C239.305 49.6353 239.138 47.8722 236.412 47.4225C232.524 46.7827 229.105 44.8667 225.597 49.5322C220.643 56.1173 210.828 50.6058 203.967 53.6219L202.189 49.7206C203.264 48.7751 203.384 47.8313 202.185 46.8876C203.067 43.0947 199.745 39.6751 201.964 35.4219C205.687 28.2876 206.622 27.5589 214.128 31.5011C216.367 32.6777 219.232 34.0036 218.357 36.2875C217.184 39.3409 214.064 36.7531 211.833 36.8775C209.065 37.0322 206.399 37.2383 206.369 40.1176C206.339 42.9507 208.863 43.4537 211.72 43.4395C214.729 43.4253 217.746 43.6705 220.744 43.5372C226.275 43.292 229.507 41.7368 225.061 36.9895C223.127 34.9225 220.643 32.6404 223.832 30.5538C227.152 28.3801 229.455 31.5384 231.063 33.2198C232.67 34.8994 238.303 34.8976 234.969 39.5134C233.959 40.9121 239.305 41.8666 242.035 42.4246C243.341 42.6912 244.625 42.0301 244.951 40.8233C245.612 38.3723 244.203 36.7389 241.677 35.6281C241.277 35.4601 240.893 35.2664 240.529 35.0487C224.574 25.3302 224.765 22.282 241.898 13.9249C244.862 12.4756 248.073 11.4066 251.424 10.7542C268.962 7.28833 286.935 6.2877 304.735 4.5619C312.174 3.84029 320.055 5.95177 327.685 7.02706C330.585 7.43585 335.652 8.42761 335.723 9.36427C335.931 12.0872 331.367 11.9876 329.328 13.7259C328.17 14.7141 326.01 15.4179 327.162 17.0779C328.477 18.9708 331.387 19.0615 332.643 17.6645C340.13 9.35183 350.572 11.4544 360.842 10.9248C369.199 10.4946 377.64 9.58288 386.229 7.1337C395.686 4.43569 406.967 3.65366 417.593 2.94806C419.722 2.80765 422.461 3.81007 423.949 3.02448C436.803 -3.75075 447.552 6.33213 459.553 5.85224C460.983 5.79537 462.085 6.79777 461.626 7.98681C461.283 8.87549 460.172 10.1516 459.3 10.2103C453.303 10.6173 447.277 10.7239 441.264 10.9923C440.024 11.0474 438.802 11.3851 437.571 11.5931C438.3 13.3366 440.17 12.7412 441.528 12.7395C454.371 12.7146 467.191 14.2182 480.076 12.9385C483.205 12.6275 487.74 12.2578 488.356 16.1591C488.84 19.2285 484.903 19.8097 482.342 20.9739C473.138 25.1613 462.874 28.844 469.926 40.2723C470.807 41.6995 468.519 43.0183 468.557 44.1273C468.905 53.9827 458.51 61.6857 460.73 71.9605C461.354 74.8505 459.164 77.8649 455.619 78.7713C447.876 80.7513 441.852 86.4086 433.008 85.9518C432.171 85.9091 431.135 85.9571 430.488 86.325C417.826 93.5019 400.966 96.9073 396.726 111.711C395.116 117.333 391.144 118.035 385.086 116.599C375.489 114.324 370.743 108.272 365.922 101.738C360.928 94.9682 358.762 88.84 366.411 82.4824C367.606 81.4907 367.522 80.2465 365.852 78.9508C362.036 75.9933 355.294 66.3032 354.282 63.0809C351.179 53.1953 339.302 45.1244 327.535 47.73C314.533 50.6093 309.854 43.436 303.323 37.7591C300.669 35.4521 302.995 33.8383 305.395 32.8448C308.828 31.4211 312.873 31.43 316.199 29.4625C318.895 27.8682 319.077 26.5067 317.703 24.1607C316.253 21.6848 314.477 22.5557 312.513 23.208C300.827 27.0862 290.456 31.837 286.62 43.1036C285.335 46.8805 281.737 49.9624 280.557 54.2884C279.543 58.0102 273.392 57.1624 269.245 57.7205C267.733 57.9249 265.114 56.7394 264.981 58.4741C264.883 59.7609 268.024 59.1459 269.371 59.7875C278.691 64.2202 290.25 61.5222 299.553 67.1048C306.961 71.55 315.689 73.8801 319.294 82.2371C321.052 86.3161 327.87 87.7914 333.004 89.5794C335.403 90.4147 338.884 91.0599 336.263 93.6317C334.211 95.6454 333.238 100.474 327.748 98.0751C325.899 97.2664 324.522 95.7289 322.89 94.563C321.942 93.8858 320.658 92.9812 319.605 93.7454C318.442 94.5879 319.575 95.6365 320.383 96.399C321.52 97.4725 322.909 98.3807 323.917 99.5236C325.757 101.61 330.578 103.562 326.806 106.436C323.96 108.606 320.377 112.098 315.558 110.225C306.064 106.537 297.559 100.597 285.929 102.31C284.827 102.472 283.744 101.262 283.725 100.098C283.701 98.7949 284.82 98.2617 286.221 98.1693C288.363 98.0271 290.63 98.2865 292.633 97.7924C298.132 96.4346 301.509 90.8022 299.551 86.7427C297.276 82.0274 283.491 76.5443 276.965 77.1646C272.339 77.6054 275.359 79.1143 275.046 80.7442C274.164 85.3368 278.58 92.615 266.785 93.0078C262.597 93.1482 265.912 96.008 267.6 97.3037C270.667 99.6587 277.84 100.03 276.999 103.46C276.199 106.731 269.206 101.976 265.661 105.307C264.186 106.693 261.434 106.837 259.672 105.645C252.753 100.967 248.576 105.823 244.158 108.723C231.016 117.354 231.559 122.124 246.815 128.217C250.266 129.594 253.446 131.667 257.139 132.412C266.759 134.354 274.956 137.326 277.372 146.447C277.799 148.054 280.193 150.965 283.085 148.715C284.677 147.476 284.687 145.411 283.459 143.916C279.691 139.331 280.403 136.288 286.866 133.944C289.751 132.899 288.874 130.145 287.666 128.235C285.52 124.84 286.343 121.259 286.146 117.734C285.644 108.696 291.769 105.389 301.589 109.683C305.322 111.316 309.618 113.232 311.709 116.021C315.217 120.701 317.975 123.127 324.764 119.638C329.178 117.37 332.318 120.852 333.744 123.685C336.864 129.882 342.57 133.874 348.378 138.152C352.8 141.41 359.798 144.336 355.633 151.308C354.286 153.56 357.327 154.058 358.993 154.989C361.888 156.608 364.597 158.402 365.24 161.491C365.536 162.911 364.428 165.415 364.217 165.28C359.478 162.239 353.819 165.134 349.156 163.584C346.012 162.539 345.837 159.777 347.014 157.083C348.822 152.943 346.203 153.05 342.48 153.814C340.006 154.323 337.278 154.648 334.792 154.337C325.832 153.219 326.336 155.743 329.06 161.665C331.477 166.92 333.952 166.51 338.459 164.4C340.568 163.414 342.787 163.636 343.774 165.685C344.711 167.631 343.248 169.908 341.458 170.148C334.739 171.051 329.253 177.76 321.271 173.043C318.869 171.625 314.833 172.702 314.421 174.286C312.792 180.57 306.401 182.225 301.13 185.11C300.135 185.654 299.408 186.768 298.972 187.746C295.093 196.415 289.549 203.836 280.358 209.664C275.687 212.625 275.384 217.774 280.177 222.031C282.53 224.119 283.195 227.002 280.025 228.505C276.886 229.993 276.444 226.259 274.559 225.104C272.549 223.872 270.851 222.084 269.577 220.269C265.822 214.923 260.055 214.347 253.913 215.979C250.154 216.978 246.523 217.733 242.605 217.735C234.894 217.738 228.01 217.422 229.798 227.425C230.465 231.155 224.027 235.346 229.916 240.11C234.205 243.577 238.08 245.223 243.491 242.424C245.316 241.48 247.023 240.373 248.869 239.457C251.559 238.123 254.904 237.099 257.469 238.416C261.404 240.439 257.551 242.982 256.51 244.736C253.165 250.39 253.823 253.319 262.386 253.26C266.954 253.23 269.504 255.761 269.609 259.483C269.708 262.97 267.924 267.355 273.304 268.702C278.917 270.106 286.041 270.582 290.42 267.682C299.847 261.438 309.135 262.76 319.27 265.392C321.996 266.1 324.827 266.434 327.677 266.589C344.117 267.488 353.164 280.356 368.258 283.395C373.405 298.158 391.798 295.876 403.64 302.006C406.709 303.595 410.651 304.41 413.971 306.108C420.372 309.385 422.137 313.592 417.28 318.531C412.422 323.471 411.166 329.256 409.098 335.105C405.699 344.719 403.606 355.824 386.93 356.698C382.435 356.935 380.1 360.439 378.77 364.181C373.435 379.196 371.507 380.779 351.934 387.046C350.415 387.533 349.976 388.031 350.473 389.186C353.548 396.32 347.653 398.263 341.415 398.747C335.584 399.2 335.286 403.218 332.972 405.835C328.811 410.539 327.842 416.947 321.64 420.683C321.254 420.915 321.687 422.982 322.427 423.453C326.437 426.004 324.659 427.648 322.11 430.303C313.652 439.119 313.804 439.602 321.4 448.773C322.614 450.238 324.96 451.329 321.149 452.392C310.846 455.264 301.175 451.294 297.272 442.793C294.226 436.163 294.046 428.919 296.174 422.721C300.615 409.779 299.967 396.329 303.742 383.205C306.63 373.158 308.961 361.98 309.154 351.043C309.277 344.198 305.983 338.928 299.442 335.724C292.202 332.176 288.144 327.192 285.417 320.982C284.692 319.333 283.39 317.861 282.474 316.262C280.057 312.041 270.454 310.645 275.966 303.172C278.947 299.13 277.636 293.249 283.128 289.907C286.665 287.757 286.845 284.629 287.049 281.303C287.267 277.75 286.234 276.286 281.518 275.905C272.989 275.219 264.048 274.457 261.947 265.222C261.49 263.215 258.591 262.995 256.671 262.673C246.764 261.004 238.949 255.553 227.497 255.206C217.832 254.915 204.806 250.85 199.901 240.181C197.735 235.469 195.312 232.044 186.35 233.548C179.02 234.778 174.263 227.137 171.776 221.6C167.896 212.971 162.366 206.346 153.408 200.404C143.725 193.982 141.066 183.432 141.311 173.179C141.478 166.172 142.119 159.541 133.026 155.729C131.09 154.916 130.296 153.61 130.028 151.513C128.962 143.195 128.139 142.729 117.48 142.027C114.051 141.801 114.186 139.388 112.925 137.628C105.173 126.818 95.3275 118.815 78.8768 117.341C72.915 116.806 69.2542 119.355 64.4955 120.118C59.4452 120.926 53.434 118.975 56.7538 126.754C57.7338 129.054 53.3869 132.536 49.8312 131.583C43.3312 129.84 40.2345 132.726 36.9018 136.149C36.1084 136.965 35.0962 138.222 34.1375 138.252C22.3598 138.623 12.6236 145.096 0.993812 145.802L0.238937 143.948ZM245.078 64.1527C242.966 64.4477 240.855 64.7925 239.391 66.2481C237.72 67.9082 238.348 69.65 239.745 71.0399C244.265 75.5383 247.626 81.1121 255.623 82.4522C257.175 82.7117 255.219 86.6272 258.567 85.9429C260.201 85.6105 261.885 83.6021 262.477 82.0683C263.24 80.0901 261.068 78.7109 259.043 78.2968C252.106 76.8785 249.657 72.8065 248.912 67.4816C248.657 65.6634 247.988 63.9714 245.078 64.1527Z" fill="#61735F"/>
<path d="M965.754 328.684C965.64 323.44 965.878 318.951 959.085 317.591C958.257 317.426 956.745 317.053 956.768 316.893C958.274 306.049 946.743 307.798 940.05 304.86C938.57 304.21 937.326 303.104 936.162 302.064C934.079 300.203 931.658 297.918 934.062 295.525C936.878 292.721 941.379 293.656 942.887 296.178C946.041 301.456 949.953 299.889 955.366 299.492C967.352 298.613 976.966 303.932 983.498 311.77C986.035 314.815 993.161 318.226 990.952 320.245C987.433 323.462 982.906 318.546 978.909 316.875C975.692 315.531 972.889 316.2 970.766 318.24C968.396 320.518 969.97 322.776 971.315 325.145C977.86 336.687 987.489 346.487 996.682 356.54C1005.24 365.896 1005.72 371.063 998.857 381.257C997.59 383.14 996.29 385.011 995.211 386.972C986.927 402.038 973.196 403.895 959.112 392.84C952.449 387.61 944.422 383.513 936.706 379.29C931.894 376.656 926.962 377.92 922.104 380.159C914.206 383.803 905.93 386.39 896.683 387.149C886.576 387.978 886.458 388.452 885.036 379.976C883.814 372.687 878.555 366.326 879.773 358.292C880.745 351.878 883.659 348.693 890.816 347.008C896.73 345.616 902.274 344.724 905.139 338.066C906.728 334.375 915.111 330.671 922.085 330.943C926.147 331.101 928.422 330.58 930.455 327.715C933.644 323.22 939.128 323.721 944.322 324.045C947.701 324.254 950.536 325.534 949.704 328.71C947.828 335.871 953.386 338.262 959.736 337.974C967.03 337.641 965.063 331.79 965.754 328.684ZM573.427 24.5872C569.273 25.4368 563.618 21.7612 560.98 27.0417C558.272 32.4644 565.808 33.8791 567.639 37.5885C568.66 39.6537 570.854 40.8179 572.88 42.1527C576.534 44.5592 580.407 44.9289 582.769 41.4808C586.406 36.1666 590.354 36.0742 595.666 39.4991C597.043 40.386 598.966 40.1941 600.422 39.197C601.51 38.4523 602.106 37.0855 601.021 36.4136C589.584 29.3398 599.816 30.5395 604.729 29.4322C606.719 28.9826 608.531 27.8682 610.298 26.8977C611.293 26.3521 612.681 25.5061 612.726 24.7507C612.792 23.6168 611.087 23.4568 609.895 23.3911C603.907 23.064 598.286 20.6415 591.503 21.4484C585.372 20.382 579.627 23.3182 573.427 24.5872ZM193.279 43.4022C191.274 41.5431 188.181 41.1023 186.948 43.6065C182.14 53.3677 176.286 45.9704 172.636 43.6545C162.902 37.4818 158.711 37.1495 150.448 43.7789C146.867 46.6529 146.642 48.4552 152.003 49.3438C159.149 50.5275 165.865 52.2302 172.329 55.4152C180.159 59.2739 195.917 55.712 202.187 49.7206C203.262 48.7751 203.382 47.8313 202.183 46.8875C198.402 47.147 195.719 45.6647 193.279 43.4022ZM865.124 290.821C864.661 291.095 864.579 292.202 864.79 292.813C866.447 297.651 868.206 302.505 875.173 303.9C881.197 305.107 885.606 303.753 889.437 299.247C894.234 293.602 892.053 286.902 894.798 280.981C895.812 278.795 892.43 277.637 887.983 277.612C881.067 281.582 873.054 286.154 865.124 290.821ZM680.516 326.634C675.149 329.761 667.707 332.206 664.949 336.962C661.773 342.442 660.628 349.071 661.087 355.486C661.248 357.738 662.68 359.537 665.625 359.97C669.189 360.496 673.422 360.303 674.441 357.274C677.265 348.885 682.738 341.189 684.132 332.974C682.933 330.184 684.055 324.573 680.516 326.634ZM707.257 74.9713C698.38 66.8027 698.391 65.0804 708.46 58.1541C714.4 54.068 720.881 50.6679 728.605 49.1572C731.904 48.512 735.125 47.4705 738.217 46.3081C739.041 45.9989 739.708 44.561 739.654 43.6759C739.549 41.9998 737.87 41.1307 736.043 41.5022C719.407 44.8738 702.762 48.2632 691.985 60.845C687.677 65.8749 689.159 71.3438 695.751 74.0649C699.365 75.5561 703.283 75.0798 707.113 75.1171L707.257 74.9713ZM1057.56 419.518C1060.66 413.314 1066.31 409.425 1072.6 405.557C1080.22 400.863 1079.68 397.472 1071.81 392.305C1070.15 391.214 1068.48 389.424 1066.33 390.238C1063.73 391.221 1065.38 393.281 1065.73 394.918C1066.72 399.649 1065.95 402.884 1059.68 405.63C1054.36 407.964 1050.57 412.931 1046.57 417.046C1043.42 420.288 1045.13 423.718 1050.02 423.953C1053.38 423.99 1056.27 422.087 1057.56 419.518ZM965.666 183.889C963.938 183.064 962.121 183.354 961.216 184.703C955.733 192.889 946.584 196.888 936.623 200.258C932.55 201.636 929.713 204.476 929.923 208.567C930.005 210.149 931.066 211.544 933.063 210.808C942.168 207.456 951.564 204.444 960.047 200.201C965.154 197.649 966.88 192.274 968.064 188.105C968.201 185.744 967.229 184.633 965.666 183.889ZM826.853 18.8251C820.681 15.4854 816.874 18.6651 814.567 22.6197C812.165 26.7324 813.917 30.3618 819.737 31.7446C824.279 32.8234 828.894 33.6872 833.477 34.647C836.139 32.8749 837.674 30.4524 839.109 27.9695C836.276 23.7661 831.517 21.3471 826.853 18.8251ZM953.389 49.0772C950.847 52.7723 956.275 53.3357 958.197 55.2908C959.003 56.1119 959.91 56.8762 960.599 57.7596C962.531 60.239 964.855 62.8374 968.709 61.7923C973.474 60.5002 967.583 57.5676 969.443 55.5592C970.466 54.4537 971.33 53.238 972.417 52.1805C974.988 49.6762 973.288 48.3059 970.459 47.6607C968.027 47.1061 965.413 47.099 963.719 46.9338C959.513 47.2323 955.252 46.3668 953.389 49.0772ZM904.967 265.632C909.138 268.618 912.928 266.244 915.038 264.132C917.32 261.848 914.802 259.197 911.463 258.647C905.42 257.654 905.055 255.205 907.153 251.012C908.043 249.233 905.499 247.706 903.464 247.249C900.745 246.638 899.771 248.673 899.093 250.313C898.549 251.632 898.611 253.125 898.403 254.54C897.98 259.317 900.848 262.682 904.967 265.632ZM894.813 300.09C895.128 303.26 895.673 307.8 899.829 308.589C902.072 309.016 907.809 307.338 907.431 303.157C907.157 300.097 906.286 296.711 901.118 296.261C898.038 296.386 894.532 297.255 894.813 300.09Z" fill="#61735F"/>
</svg>
