<svg width="57" height="49" viewBox="0 0 57 49" fill="none" xmlns="http://www.w3.org/2000/svg">
<path d="M56.75 24.5C56.75 37.8588 44.1389 48.75 28.5 48.75C12.8611 48.75 0.25 37.8588 0.25 24.5C0.25 11.1412 12.8611 0.25 28.5 0.25C44.1389 0.25 56.75 11.1412 56.75 24.5Z" stroke="white" stroke-width="0.5"/>
<path d="M18.5767 24.1637C18.1836 24.5541 18.1794 25.1871 18.5675 25.5775L24.8919 31.9396C25.28 32.33 25.9134 32.33 26.3065 31.9396C26.6997 31.5492 26.7038 30.9162 26.3157 30.5258L20.694 24.8706L26.389 19.2153C26.7821 18.8249 26.7862 18.1919 26.3982 17.8015C26.0101 17.4111 25.3767 17.4111 24.9836 17.8015L18.5767 24.1637ZM38.1462 23.8708L19.2859 23.8709L19.2729 25.8703L38.1332 25.8703L38.1462 23.8708Z" fill="white"/>
</svg>
