<svg width="58" height="50" viewBox="0 0 58 50" fill="none" xmlns="http://www.w3.org/2000/svg">
<path d="M0.364699 24.7654C0.302168 11.4068 12.8622 0.456657 28.5009 0.383453C44.1396 0.310248 56.8015 11.1423 56.8641 24.501C56.9266 37.8596 44.3666 48.8097 28.7279 48.8829C13.0892 48.9561 0.427231 38.124 0.364699 24.7654Z" stroke="white" stroke-width="0.5"/>
<path d="M38.5391 24.923C38.9305 24.5308 38.9316 23.8978 38.5417 23.5092L32.1876 17.1767C31.7977 16.7881 31.1643 16.7911 30.773 17.1833C30.3817 17.5756 30.3805 18.2086 30.7705 18.5972L36.4186 24.226L30.7501 29.9079C30.3588 30.3001 30.3576 30.9331 30.7476 31.3217C31.1375 31.7103 31.7708 31.7074 32.1621 31.3151L38.5391 24.923ZM18.9712 25.3074L37.8313 25.2191L37.8349 23.2197L18.9748 23.308L18.9712 25.3074Z" fill="white"/>
</svg>
